<svg xmlns="http://www.w3.org/2000/svg" xmlns:svg="http://www.w3.org/2000/svg" xmlns:xlink="http://www.w3.org/1999/xlink" id="svg5" width="15" height="30" version="1.1" viewBox="0 0 1792 3584"><defs id="defs2"><g id="previous"><path id="path1" d="m 1037,1395 102,-102 q 19,-19 19,-45 0,-26 -19,-45 L 832,896 1139,589 q 19,-19 19,-45 0,-26 -19,-45 L 1037,397 q -19,-19 -45,-19 -26,0 -45,19 L 493,851 q -19,19 -19,45 0,26 19,45 l 454,454 q 19,19 45,19 26,0 45,-19 z m 627,-499 q 0,209 -103,385.5 Q 1458,1458 1281.5,1561 1105,1664 896,1664 687,1664 510.5,1561 334,1458 231,1281.5 128,1105 128,896 128,687 231,510.5 334,334 510.5,231 687,128 896,128 1105,128 1281.5,231 1458,334 1561,510.5 1664,687 1664,896 Z"/></g><g id="next"><path id="path2" d="m 845,1395 454,-454 q 19,-19 19,-45 0,-26 -19,-45 L 845,397 q -19,-19 -45,-19 -26,0 -45,19 L 653,499 q -19,19 -19,45 0,26 19,45 l 307,307 -307,307 q -19,19 -19,45 0,26 19,45 l 102,102 q 19,19 45,19 26,0 45,-19 z m 819,-499 q 0,209 -103,385.5 Q 1458,1458 1281.5,1561 1105,1664 896,1664 687,1664 510.5,1561 334,1458 231,1281.5 128,1105 128,896 128,687 231,510.5 334,334 510.5,231 687,128 896,128 1105,128 1281.5,231 1458,334 1561,510.5 1664,687 1664,896 Z"/></g></defs><use id="use5" x="0" y="5376" fill="#000" transform="translate(0,-3584)" xlink:href="#next"/><use id="use2" x="0" y="0" fill="#333" xlink:href="#previous" style="fill:#000;fill-opacity:1"/></svg>